<svg id="Layer_3" enable-background="new 0 0 64 64" height="512" viewBox="0 0 64 64" width="512" xmlns="http://www.w3.org/2000/svg"><g><path d="m30 9c0-1.657-1.343-3-3-3s-3 1.343-3 3c0 .382.078.744.208 1.08-1.829.367-3.208 1.982-3.208 3.92s1.379 3.553 3.208 3.92c-.13.336-.208.698-.208 1.08 0 1.657 1.343 3 3 3s3-1.343 3-3z" fill="#f4b2b0"/><path d="m34 9c0-1.657 1.343-3 3-3s3 1.343 3 3c0 .382-.078.744-.208 1.08 1.829.367 3.208 1.982 3.208 3.92s-1.379 3.553-3.208 3.92c.13.336.208.698.208 1.08 0 1.657-1.343 3-3 3s-3-1.343-3-3z" fill="#f4b2b0"/><g fill="#b3404a"><path d="m59 5.839v-3.839c0-.553-.447-1-1-1h-4c-1.654 0-3 1.346-3 3v2c0 .553.447 1 1 1h1.132l.552 3.866-.193-.154c-2.324-1.857-5.721-2.217-8.379-.887l-2.18 1.09c-.51-.651-1.182-1.172-1.966-1.507.016-.135.034-.27.034-.408 0-2.206-1.794-4-4-4s-4 1.794-4 4v10c0 1.859 1.279 3.411 3 3.858v4.618c-1.797-.939-3.836-1.476-6-1.476-.682 0-1.346.069-2 .17v-3.312c1.721-.447 3-1.999 3-3.858v-10c0-2.206-1.794-4-4-4s-4 1.794-4 4c0 .138.018.273.032.408-.783.335-1.456.856-1.966 1.507l-2.18-1.09c-2.659-1.331-6.055-.972-8.379.887l-.193.154.554-3.866h1.132c.553 0 1-.447 1-1v-2c0-1.654-1.346-3-3-3h-4c-.553 0-1 .447-1 1v3.839l-.684 2.05c-.874 2.62-1.316 5.348-1.316 8.111 0 .314.148.611.4.8 2.751 2.063 6.162 3.2 9.6 3.2h1.459c2.472 0 4.945-.584 7.155-1.689l.494-.247c.289.207.596.389.926.531-.013.135-.034.268-.034.405 0 1.859 1.279 3.411 3 3.858v3.778c-5.216 1.692-9 6.592-9 12.364v1.075c0 3.408.702 6.716 2.086 9.831 1.27 2.858 1.914 5.892 1.914 9.019v4.075h2v-4.075c0-3.408-.702-6.716-2.086-9.831-1.27-2.858-1.914-5.892-1.914-9.019v-1.075c0-4.653 2.909-8.631 7-10.236v8.236h-2v2h2v3c0 .553.447 1 1 1h5c.553 0 1-.447 1-1v-3h4c.553 0 1-.447 1-1v-6.526c1.854 1.97 3 4.614 3 7.526 0 .155.036.309.105.447l3.277 6.553h-2.382c-.553 0-1 .447-1 1v8h-8v2h2v6h2v-6h5c.553 0 1-.447 1-1v-8h3c.347 0 .668-.18.851-.475s.199-.663.044-.973l-3.896-7.793c-.074-4.054-2.018-7.653-4.998-9.989v-5.913c1.721-.447 3-1.999 3-3.858 0-.137-.021-.27-.034-.405.33-.142.637-.324.926-.531l.494.247c2.209 1.106 4.682 1.69 7.154 1.69h1.459c3.438 0 6.849-1.137 9.6-3.2.252-.188.4-.485.4-.8 0-2.763-.442-5.491-1.316-8.111zm-52-2.839h3c.552 0 1 .448 1 1v1h-4zm6 15c-2.842 0-5.661-.888-7.994-2.508.05-2.373.456-4.716 1.207-6.971l.507-1.521h2.126l-.813 5.692-.659.527 1.25 1.562 3.133-2.507c1.729-1.385 4.258-1.65 6.234-.66l2.193 1.097c-.109.415-.184.844-.184 1.289 0 .925.27 1.782.71 2.526-1.931.964-4.093 1.474-6.251 1.474zm12 1c.881 0 1.745-.231 2.502-.67l-1.004-1.73c-.451.261-.97.4-1.498.4-1.654 0-3-1.346-3-3 0-1.179.688-2.225 1.723-2.712.468.67 1.138 1.199 1.944 1.483l.666-1.885c-.797-.282-1.333-1.04-1.333-1.886 0-1.103.897-2 2-2s2 .897 2 2v10c0 1.103-.897 2-2 2s-2-.897-2-2zm6 22h-3v-2h3zm2-4v-2h-2v2h-3v-8.809c.65-.12 1.316-.191 2-.191 2.214 0 4.273.663 6 1.792v7.208zm20-33c0-.552.448-1 1-1h3v2h-4zm-14 13c-.528 0-1.047-.139-1.498-.4l-1.004 1.73c.757.439 1.621.67 2.502.67 0 1.103-.897 2-2 2s-2-.897-2-2v-10c0-1.103.897-2 2-2s2 .897 2 2c0 .846-.536 1.604-1.333 1.887l.666 1.885c.806-.284 1.476-.813 1.944-1.483 1.035.486 1.723 1.532 1.723 2.711 0 1.654-1.346 3-3 3zm12 1h-1.459c-2.158 0-4.32-.51-6.251-1.474.44-.744.71-1.601.71-2.526 0-.445-.075-.874-.186-1.289l2.193-1.097c1.977-.99 4.505-.725 6.234.66l3.133 2.507 1.25-1.562-.659-.527-.812-5.692h2.126l.507 1.521c.751 2.255 1.157 4.598 1.207 6.971-2.332 1.62-5.151 2.508-7.993 2.508z"/><path d="m31 31h2v2h-2z"/><path d="m20 37h2v2h-2z"/></g></g></svg>