<svg height="475pt" viewBox="-4 0 475 475.87709" width="475pt" xmlns="http://www.w3.org/2000/svg" xmlns:xlink="http://www.w3.org/1999/xlink"><linearGradient id="a"><stop offset="0" stop-color="#00efd1"/><stop offset="1" stop-color="#00acea"/></linearGradient><linearGradient id="b" gradientUnits="userSpaceOnUse" x1="207.534545" x2="207.534545" xlink:href="#a" y1="1.877094" y2="478.146094"/><linearGradient id="c" gradientUnits="userSpaceOnUse" x1="256.875545" x2="256.876545" xlink:href="#a" y1="1.877094" y2="478.146094"/><linearGradient id="d" gradientUnits="userSpaceOnUse" x1="233.438545" x2="233.438545" xlink:href="#a" y1="1.877094" y2="478.146094"/><linearGradient id="e" gradientUnits="userSpaceOnUse" x1="228.655545" x2="228.655545" xlink:href="#a" y1="1.877094" y2="478.146094"/><linearGradient id="f" gradientUnits="userSpaceOnUse" x1="147.527545" x2="147.527545" xlink:href="#a" y1="1.877094" y2="478.146094"/><linearGradient id="g" gradientUnits="userSpaceOnUse" x1="182.527545" x2="182.527545" xlink:href="#a" y1="1.877094" y2="478.146094"/><path d="m225.402344 301.445312c0-4.417968-3.582032-8-8-8-4.417969 0-8 3.582032-8 8 0 1.035157-.835938 1.871094-1.867188 1.871094s-1.867187-.835937-1.867187-1.871094c0-4.417968-3.582031-8-8-8s-8 3.582032-8 8c0 9.871094 8 17.871094 17.867187 17.871094 9.867188 0 17.867188-8 17.867188-17.871094zm0 0" fill="url(#b)"/><path d="m256.875 319.316406c9.863281-.011718 17.859375-8.007812 17.871094-17.871094 0-4.417968-3.582032-8-8-8-4.417969 0-8 3.582032-8 8-.023438 1.015626-.855469 1.828126-1.871094 1.828126s-1.84375-.8125-1.867188-1.828126c0-4.417968-3.582031-8-8-8-4.417968 0-8 3.582032-8 8 .011719 9.867188 8.003907 17.859376 17.867188 17.871094zm0 0" fill="url(#c)"/><path d="m430.507812 391.878906h-12.070312v-2.410156c11.496094-9.761719 18.085938-24.109375 18-39.191406v-10.609375c1 .101562 1.871094.160156 2.800781.160156 1.613281 0 3.21875-.140625 4.804688-.425781 10.730469-1.910156 19.25-10.09375 21.585937-20.738282 2.339844-10.640624-1.964844-21.644531-10.902344-27.875-8.902343-6.199218-20.710937-6.027343-29.707031-.566406-13.332031-16.054687-35.296875-22.023437-54.917969-14.925781-19.621093 7.097656-32.6875 25.738281-32.664062 46.605469v28.375c.011719 15.875 7.402344 30.84375 20 40.5v1.101562h-12.300781c-2.804688.125-5.585938.574219-8.289063 1.332032-7.308594-17.847657-24.734375-29.457032-44.023437-29.332032h-20.386719v-9.019531c2-1.800781 4.589844-3.738281 6.648438-5.851563 12.359374-12.539062 19.308593-29.425781 19.351562-47.03125v-18.421874c2.234375.503906 4.515625.75 6.804688.738281 15-.011719 28.25-9.765625 32.726562-24.082031 4.472656-14.3125-.867188-29.875-13.191406-38.425782-12.121094-8.449218-28.523438-7.609375-40.238282.828125-17.097656-22.464843-46.628906-31.507812-73.375-22.476562-26.75 9.035156-44.746093 34.132812-44.726562 62.367187v39.472656c-.011719 17.589844 6.886719 34.476563 19.199219 47.03125 2.738281 2.753907 5.679687 5.296876 8.808593 7.601563v7.269531h-20.394531c-19.285156-.128906-36.710937 11.484375-44.019531 29.332032-2.707031-.757813-5.488281-1.207032-8.292969-1.332032h-12.300781v-2.410156c11.496094-9.761719 18.085938-24.109375 18-39.191406v-10.609375c1 .101562 1.984375.160156 2.914062.160156 1.628907 0 3.257813-.140625 4.863282-.425781 10.734375-1.894532 19.269531-10.074219 21.617187-20.71875 2.351563-10.644532-1.945312-21.65625-10.886719-27.894532-8.902343-6.199218-20.707031-6.027343-29.699218-.566406-13.367188-16.058594-35.355469-22.03125-55.007813-14.9375-19.652343 7.089844-32.765625 25.722656-32.800781 46.617188v28.375c.011719 15.875 7.402344 30.84375 20 40.5v1.101562h-12.070312c-20.066407 0-35.929688 16.734375-35.929688 36.796875v39.101563c0 4.417968 3.125 8.101562 7.542969 8.101562h142.144531c4.5-.027344 8.171875-3.605468 8.3125-8.101562v-13.898438h150v13.898438c.140625 4.496094 3.816406 8.074218 8.3125 8.101562h142.148438c4.417968 0 7.539062-3.6875 7.539062-8.101562v-39.101563c0-20.0625-15.863281-36.796875-35.929688-36.796875zm-43.167968 13.109375-7.441406-4.859375c5.203124.769532 10.496093.679688 15.671874-.261718zm58.238281-101.074219c3.636719 2.53125 5.382813 7.003907 4.425781 11.328126-.953125 4.324218-4.425781 7.644531-8.789062 8.410156-1.585938.273437-3.214844.203125-4.773438-.207032v-1.542968c.011719-6.125-1.117187-12.199219-3.332031-17.910156 3.773437-2.492188 8.664063-2.519532 12.46875-.078126zm-58.609375-15.574218c10.097656 0 19.65625 4.554687 26.011719 12.402344-.320313-.09375-.648438-.164063-.980469-.214844-3.226562-.453125-6.410156 1.09375-8.042969 3.914062-6.628906 11.453125-17.839843 17.9375-33.375 19.273438-5.71875.460937-11.46875.269531-17.144531-.570313v-1.242187c.007812-18.519532 15.011719-33.539063 33.53125-33.5625zm-33.53125 50.941406c3.722656.457031 7.46875.6875 11.222656.683594 2.167969 0 4.417969-.078125 6.746094-.261719 15.699219-1.246094 28.585938-6.820313 38.019531-16.300781 2.933594 4.289062 6.675781 7.96875 11.011719 10.832031v16.042969c0 18.632812-15.308594 34.371094-33.5 34.371094s-33.5-15.742188-33.5-34.371094zm-29 71.777344v26.820312h-84v-42.132812l26.171875-15.867188h26.214844c8.332031-.066406 16.34375 3.183594 22.273437 9.03125 5.933594 5.851563 9.292969 13.820313 9.339844 22.148438zm-8.859375-176.148438c8.347656 5.75 10.476563 17.167969 4.765625 25.539063-5.023438 7.199219-14.898438 9.6875-21.898438 6.433593v-4.378906c-.0625-8.949218-1.957031-17.792968-5.5625-25.984375 6.386719-5.511719 15.761719-6.441406 22.695313-1.609375zm-83.34375-22.234375c25.320313.035157 46.601563 19.042969 49.480469 44.203125-3.839844-4.359375-6.71875-9.484375-8.4375-15.03125-.785156-3.164062-3.417969-5.535156-6.644532-5.988281-3.230468-.457031-6.414062 1.09375-8.042968 3.917969-9.792969 16.917968-26.285156 26.464844-49.066406 28.378906-9.046876.699219-18.140626.28125-27.085938-1.246094v-4.40625c.015625-27.5 22.296875-49.792968 49.796875-49.828125zm-49.796875 89.300781v-18.859374c6.199219.914062 12.453125 1.378906 18.71875 1.386718 2.949219 0 6.015625-.105468 9.183594-.355468 22.558594-1.792969 41.027344-10.214844 53.8125-24.566407 4.496094 7.539063 10.773437 13.855469 18.285156 18.394531v24c-.074219 13.441407-5.414062 26.320313-14.871094 35.871094-9.183594 9.632813-21.910156 15.082032-35.21875 15.082032s-26.035156-5.449219-35.21875-15.082032c-9.40625-9.570312-14.679687-22.449218-14.691406-35.871094zm49.84375 66.953126c8.277344-.035157 16.472656-1.636719 24.15625-4.710938v2.902344l-23.640625 14.691406-22.359375-14.578125v-2.121094c7.007812 2.523438 14.398438 3.8125 21.84375 3.816407zm-89.84375 42.128906c.050781-8.328125 3.410156-16.296875 9.339844-22.148438 5.929687-5.847656 13.945312-9.097656 22.273437-9.03125h25.96875l24.417969 15.753906v42.246094h-82zm-63.871094-6.070313-7.441406-4.859375c5.203125.769532 10.496094.679688 15.671875-.261718zm58.238282-101.074219c4.953124 3.453126 6.171874 10.273438 2.71875 15.226563-1.710938 2.390625-4.296876 4.011719-7.195313 4.511719-1.625.273437-3.292969.203125-4.890625-.207032v-1.542968c.050781-6.117188-1.039062-12.191406-3.21875-17.910156 3.816406-2.492188 8.738281-2.523438 12.585938-.078126zm-58.722657-15.574218c10.113281 0 19.6875 4.554687 26.070313 12.402344-.3125-.09375-.632813-.164063-.953125-.214844-3.222657-.453125-6.402344 1.097656-8.027344 3.914062-6.632813 11.453125-17.949219 17.9375-33.484375 19.273438-5.753906.460937-11.539062.269531-17.25-.570313v-1.242187c.0625-18.542969 15.101562-33.546875 33.644531-33.5625zm-33.644531 50.941406c3.761719.457031 7.546875.6875 11.335938.683594 2.167968 0 4.476562-.078125 6.796874-.261719 15.703126-1.246094 28.5-6.820313 37.9375-16.300781 2.902344 4.289062 6.617188 7.96875 10.929688 10.832031v16.042969c0 18.632812-15.308594 34.371094-33.5 34.371094s-33.5-15.742188-33.5-34.371094zm-28 89.394531c0-11.238281 8.6875-20.796875 19.929688-20.796875h18l16.070312 10.929688v41.070312h-54zm126 31.203125h-56v-40.957031l17.101562-11.042969h18.199219c1.632813.066406 3.25.332032 4.816407.789063-.03125.722656-.113282 1.660156-.113282 2.390625v34.917968c.0625 4.421876 3.695313 7.957032 8.117188 7.902344h7.878906zm182-6h7.882812c4.421876.054688 8.054688-3.480468 8.117188-7.902344v-34.917968c0-.730469-.082031-1.664063-.113281-2.390625 1.566406-.457031 3.183593-.722657 4.8125-.789063h18l16.300781 10.929688v41.070312h-55zm126 6h-55v-40.957031l16.871094-11.042969h18.199218c11.242188 0 19.929688 9.558594 19.929688 20.796875zm0 0" fill="url(#d)"/><path d="m93.753906 147.0625 37.378906.246094-3.035156 51.511718c-.1875 3.179688 1.527344 6.164063 4.367188 7.605469 2.839844 1.441407 6.265625 1.058594 8.71875-.96875l69.523437-57.5 43.644531.253907 68.511719 41.351562c2.554688 1.542969 5.757813 1.535156 8.308594-.023438 2.539063-1.519531 4.011719-4.339843 3.804687-7.296874l-2.425781-34.363282h30.289063c18.820312 0 34.597656-15.496094 34.597656-34.3125v-61.890625c0-18.820312-15.777344-33.796875-34.597656-33.796875h-58.128906c-6.027344-10.183594-16.964844-16.441406-28.796876-16.480468l-19.617187-.253907-161.414063-1.1210935c-.101562 0-.203124-.0234375-.300781-.0234375-18.75-.0429688-34.007812 15.070312-34.144531 33.816406v.011719l-.5625 78.820313c-.125 18.851562 15.027344 34.246093 33.878906 34.414062zm215.417969-32.597656.578125-78.65625c.015625-.644532-.003906-1.289063-.054688-1.929688h53.144532c10 0 18.597656 7.796875 18.597656 17.796875v61.890625c0 10-8.597656 18.3125-18.597656 18.3125h-38.871094c-2.207031-.042968-4.332031.847656-5.851562 2.449219-1.515626 1.605469-2.289063 3.773437-2.128907 5.976563l1.945313 27.613281-34.257813-20.6875c14.910157-3.925781 25.351563-17.34375 25.496094-32.761719zm-232.710937-80.507813c.042968-4.8125 1.992187-9.410156 5.425781-12.78125 3.433593-3.371093 8.066406-5.242187 12.875-5.195312l161.410156 1.082031 19.601563.167969c10.011718.097656 18.054687 8.28125 17.976562 18.292969l-.574219 78.597656c-.113281 9.914062-8.238281 17.859375-18.148437 17.757812h-.15625l-66.976563-.167968c-1.890625.027343-3.710937.714843-5.144531 1.945312l-57.597656 47.699219 2.445312-41.546875c.128906-2.1875-.648437-4.332032-2.148437-5.929688s-3.59375-2.507812-5.785157-2.519531l-45.796874-.300781c-10.015626-.09375-18.058594-8.273438-17.988282-18.289063zm0 0" fill="url(#e)"/><path d="m101.71875 47.910156 91.429688.96875h.097656c4.359375.054688 7.941406-3.433594 8-7.792968.050781-4.421876-3.488282-8.050782-7.90625-8.109376l-91.429688-1.097656h-.101562c-4.425782-.027344-8.035156 3.539063-8.0625 7.96875-.023438 4.425782 3.542968 8.035156 7.96875 8.0625zm0 0" fill="url(#f)"/><g fill="url(#g)"><path d="m101.761719 77.910156 161.425781.96875h.054688c2.101562.023438 4.125-.785156 5.628906-2.257812 1.5-1.46875 2.355468-3.476563 2.371094-5.578125.03125-4.421875-3.523438-8.03125-7.945313-8.070313l-161.429687-1.09375h-.054688c-4.425781-.015625-8.027344 3.5625-8.042969 7.988282-.011719 4.425781 3.5625 8.027343 7.992188 8.042968zm0 0"/><path d="m101.761719 107.910156 161.425781.96875h.054688c2.101562.023438 4.125-.785156 5.628906-2.257812 1.5-1.46875 2.355468-3.476563 2.371094-5.578125.03125-4.421875-3.523438-8.03125-7.945313-8.070313l-161.429687-1.09375h-.054688c-4.425781-.015625-8.027344 3.5625-8.042969 7.988282-.011719 4.425781 3.5625 8.027343 7.992188 8.042968zm0 0"/></g></svg>