<svg id="Layer_1" height="512" viewBox="0 0 512 512" width="512" xmlns="http://www.w3.org/2000/svg" xmlns:xlink="http://www.w3.org/1999/xlink" data-name="Layer 1"><linearGradient id="linear-gradient" gradientUnits="userSpaceOnUse" x1="432.636" x2="432.636" y1="486" y2="88.709"><stop offset=".322" stop-color="#a163f5"/><stop offset=".466" stop-color="#b074ee"/><stop offset=".752" stop-color="#d8a1dd"/><stop offset=".898" stop-color="#efbad3"/></linearGradient><linearGradient id="linear-gradient-2" x1="406.673" x2="406.673" xlink:href="#linear-gradient" y1="486" y2="88.709"/><linearGradient id="linear-gradient-3" x1="256" x2="256" xlink:href="#linear-gradient" y1="486" y2="88.709"/><linearGradient id="linear-gradient-4" x1="449.107" x2="449.107" xlink:href="#linear-gradient" y1="486" y2="88.709"/><linearGradient id="linear-gradient-5" x1="343.426" x2="343.426" xlink:href="#linear-gradient" y1="486" y2="88.709"/><linearGradient id="linear-gradient-6" x1="131.291" x2="131.291" xlink:href="#linear-gradient" y1="486" y2="88.709"/><linearGradient id="linear-gradient-7" x1="79.364" x2="79.364" xlink:href="#linear-gradient" y1="486" y2="88.709"/><linearGradient id="linear-gradient-8" x1="105.327" x2="105.327" xlink:href="#linear-gradient" y1="486" y2="88.709"/><linearGradient id="linear-gradient-9" x1="346.638" x2="346.638" xlink:href="#linear-gradient" y1="486" y2="88.709"/><linearGradient id="linear-gradient-10" x1="214.889" x2="214.889" xlink:href="#linear-gradient" y1="486" y2="88.709"/><linearGradient id="linear-gradient-11" x1="124.628" x2="124.628" xlink:href="#linear-gradient" y1="486" y2="88.709"/><linearGradient id="linear-gradient-12" x1="391.62" x2="391.62" xlink:href="#linear-gradient" y1="486" y2="88.709"/><linearGradient id="linear-gradient-13" x1="325.482" x2="325.482" xlink:href="#linear-gradient" y1="486" y2="88.709"/><linearGradient id="linear-gradient-14" x1="189.71" x2="189.71" xlink:href="#linear-gradient" y1="486" y2="88.709"/><linearGradient id="linear-gradient-15" x1="394.182" x2="394.182" xlink:href="#linear-gradient" y1="486" y2="88.709"/><linearGradient id="linear-gradient-16" x1="257.348" x2="257.348" xlink:href="#linear-gradient" y1="486" y2="88.709"/><linearGradient id="linear-gradient-17" x1="119.269" x2="119.269" xlink:href="#linear-gradient" y1="486" y2="88.709"/><linearGradient id="linear-gradient-18" x1="85" x2="85" xlink:href="#linear-gradient" y1="486" y2="88.709"/><path d="m448.372 273.658a15.737 15.737 0 0 0 -31.473 0 6 6 0 0 0 12 0 3.737 3.737 0 0 1 7.473 0 6 6 0 0 0 12 0z" fill="url(#linear-gradient)"/><path d="m418.662 305.889a16.974 16.974 0 0 1 -23.978 0 6 6 0 1 0 -8.485 8.486 28.989 28.989 0 0 0 40.947 0 6 6 0 1 0 -8.484-8.486z" fill="url(#linear-gradient-2)"/><path d="m488.482 387.179c4.381-14.3-.984-31.582-1.775-33.981a3.682 3.682 0 0 0 -.53-1.18c-.4-.865-2.884-7.463 8.32-16.654a20.986 20.986 0 0 0 8.812-12.73c1.467-6.663-.291-13.818-5.514-21.267a26.421 26.421 0 0 1 -4.8-15.3v-.567a45.362 45.362 0 0 1 2.811-16.158 43.659 43.659 0 0 0 .087-30.453l-.086-.136a62.189 62.189 0 0 1 -3.477-14.744 68.88 68.88 0 0 0 -6.737-23.232c-1.734-3.519-3.474-7.319-5.631-12.322-2.639-6.118-7.7-14.524-16.831-19.831a35.586 35.586 0 0 0 -11.365-4.2 26.825 26.825 0 0 0 4.234-14.465v-108.918a27.041 27.041 0 0 0 -27.041-27.041h-345.918a27.041 27.041 0 0 0 -27.041 27.041v108.544a27.513 27.513 0 0 0 23.475 27.126l-8.813 4.089a5.691 5.691 0 0 0 -4.5-2.2 32.225 32.225 0 0 0 -32.162 32.315v53.785a5.9 5.9 0 0 0 .408 2.51c-.32.188-.713.381-1.022.595a17.011 17.011 0 0 0 -7.234 11.643 17.183 17.183 0 0 0 10.5 18.262 16.163 16.163 0 0 0 6.078 1.244c.523 22.152 13.27 41.478 30.27 52.146v4.9h-4v-.186a6.229 6.229 0 0 0 -5.21 2.834l-11.49 18.445a5.123 5.123 0 0 0 -.813 1.8 15.756 15.756 0 0 1 -.4 2.108h-7.108c-21.493-.001-38.979 17.868-38.979 39.361v71.638a6 6 0 0 0 6 6h188.654a6.305 6.305 0 0 0 6.346-6v-71.638a39.649 39.649 0 0 0 -39.325-39.362h-7.109a17.72 17.72 0 0 1 -.369-2.108 5.5 5.5 0 0 0 -.785-1.895l-11.375-18.4a5.884 5.884 0 0 0 -5.037-2.783v.186h-5v-4.9a62.264 62.264 0 0 0 30.609-52.148 17.605 17.605 0 0 0 6.237-1.238 17.217 17.217 0 0 0 10.545-18.262 16.893 16.893 0 0 0 -7.139-11.643 15.97 15.97 0 0 0 -6.252-2.5v-35.943a60.728 60.728 0 0 0 -20.822-45.724 60.02 60.02 0 0 0 -5.478-4.225 23.5 23.5 0 0 1 11.215-2.417h8.085a6 6 0 0 0 0-12h-8.085c-28.994 0-33.207 24.6-34.556 37.705-5.152-3.988-11.987-11.806-14.613-26.464a13.71 13.71 0 0 0 -13.534-11.241h-10.171a15.041 15.041 0 0 1 -15.041-15.041v-108.759a15.2 15.2 0 0 1 15.2-15.2h345.759a15.041 15.041 0 0 1 15.041 15.041v108.544a15.461 15.461 0 0 1 -15.415 15.415h-9.785a13.672 13.672 0 0 0 -13.55 11.207c-2.62 14.628-9.453 22.553-14.609 26.545-1.351-13.106-5.568-37.752-34.556-37.752h-150.085a6 6 0 0 0 0 12h141.924a76.281 76.281 0 0 0 -17.978 24.329 68.909 68.909 0 0 0 -6.946 30.113v19.241a9.177 9.177 0 0 1 -.783 3.953c-.01.022.033.043.023.065-.406.861-.752 1.735-1.106 2.615-2.545.179-4.639.346-6.372.577a6 6 0 0 0 1.591 11.9c.478-.063 1.027-.123 1.626-.181a48.737 48.737 0 0 0 1.377 18.9l.91 3.3a17.143 17.143 0 0 1 -2.4 14.183c-4.945 7.29-6.7 14.292-5.208 20.812a21.01 21.01 0 0 0 8.777 12.581c11.205 9.191 8.716 15.789 8.321 16.654a3.66 3.66 0 0 0 -.53 1.18c-.7 2.132-5.188 16.018-3.064 29.123a39.054 39.054 0 0 0 -20.162 34.017v71.638a6.3 6.3 0 0 0 6.346 6h188.654a6 6 0 0 0 6-6v-71.638a38.9 38.9 0 0 0 -18.518-33.183zm-445.482-100.23a3.884 3.884 0 0 1 -1.852-.376 5.041 5.041 0 0 1 -.955-8.895 3.323 3.323 0 0 1 2.807-.388zm125-9.685a2.888 2.888 0 0 1 2.514.414 4.955 4.955 0 0 1 2.032 3.5 5.062 5.062 0 0 1 -2.985 5.4 11.954 11.954 0 0 1 -1.561.372zm-122-19.464v-46.885a20.432 20.432 0 0 1 14-19.41v46.885a20.43 20.43 0 0 1 -14 19.41zm17.048 124.638 2.309-3.724a34.758 34.758 0 0 0 15.527 17c.031.018.062.034.094.05l15.22 7.881-8.232 11.088-14.842-9.716a22.749 22.749 0 0 1 -10.076-22.579zm64.733.1a22.549 22.549 0 0 1 -3.73 2.591l-18.751 9.725-18.768-9.725a24.882 24.882 0 0 1 -3.987-2.588 20.8 20.8 0 0 0 2.455-10.25v-15.668a66.257 66.257 0 0 0 20 3.274 61.517 61.517 0 0 0 20-3.274v15.668a21.082 21.082 0 0 0 2.781 10.247zm31.276 10.462h7.618a27.637 27.637 0 0 1 27.325 27.362v65.638h-26v-39.277a6 6 0 1 0 -12 0v39.277h-101v-39.277a6 6 0 0 0 -12 0v39.277h-26v-65.638c0-14.876 12.1-27.362 26.979-27.362h7.621a34.377 34.377 0 0 0 14.954 21.862l19.573 12.909a5.93 5.93 0 0 0 8.1-1.371l11.1-14.937 11.1 14.955a6 6 0 0 0 8.1 1.448l19.574-13a34.379 34.379 0 0 0 14.956-21.866zm-13.757-14.286 2.309 3.724a22.747 22.747 0 0 1 -10.076 22.575l-14.842 9.716-8.232-11.088 15.221-7.881.094-.05a34.76 34.76 0 0 0 15.526-16.996zm10.7-81.256a50.5 50.5 0 0 1 -101 0v-30.558a32.58 32.58 0 0 0 17-28.51v-3.147a30.135 30.135 0 0 0 17.132 5.757h35.468c15.322 0 28.4 11.589 31.4 26.7zm-66.314-112.258a48.591 48.591 0 0 1 6.215-2.372c6.169 25 23.148 32.995 27.283 34.607a6.082 6.082 0 0 0 3.7.611 6.376 6.376 0 0 0 5.2-4.856 40.682 40.682 0 0 0 .975-6.78c.614-6.573 1.481-12.838 3.673-17.886a47.908 47.908 0 0 1 5.56 4.161 48.729 48.729 0 0 1 16.708 36.681v16.554a38.127 38.127 0 0 0 -3.414-3.762 42.765 42.765 0 0 0 -30.986-13.158h-35.468c-8.324 0-15.132-6.126-17.132-14.213v-21.382zm401.93 134.73a8.963 8.963 0 0 1 -3.637 5.366 4.146 4.146 0 0 0 -.762.525c-18.088 14.624-13.449 28.041-11.779 31.537 2.119 6.755 5.621 24.563-1.734 32.271-2.773 2.908-6.887 4.557-9.777 3.924-.108-.023-.247-.054-.412-.1a11.347 11.347 0 0 0 3.125-7.4 14.762 14.762 0 0 0 -5.446-12.019c-6.938-5.73-12.675-19.284-16.1-27.383l-.008-.018a62.349 62.349 0 0 0 23.991-47.68 17.265 17.265 0 0 0 6.177-1.238 16.777 16.777 0 0 0 6.178-4.325 39.076 39.076 0 0 0 6.4 14.868c2.168 3.107 4.6 7.656 3.784 11.668zm-85.116 27.97a50.549 50.549 0 0 1 -50.5-50.442v-32.32a135.974 135.974 0 0 0 15-3.923 15.652 15.652 0 0 0 -6.081 12.443 6.022 6.022 0 0 0 12.044 0 3.741 3.741 0 0 1 7.482 0 6 6 0 0 0 12 0 15.753 15.753 0 0 0 -15.735-15.736c-.224 0-.441.024-.663.034.171-.07.342-.134.513-.205 24.063-9.96 41.595-26.518 52.219-49.285a19.288 19.288 0 0 1 3.263 6.571 16.539 16.539 0 0 0 15.951 12.22 5.021 5.021 0 0 1 5.007 5.064v65.137a50.549 50.549 0 0 1 -50.5 50.442zm20.5 8.726v37.021a20 20 0 0 1 -40 0v-37.024a61.517 61.517 0 0 0 20 3.274 66.257 66.257 0 0 0 20-3.274zm12 4.992c3 7.06 7.167 14.385 12.474 19.385h-3.8a8.434 8.434 0 0 1 -8.674-8.712zm30-74.669v-9.682a3.278 3.278 0 0 1 2.688.413 5.064 5.064 0 0 1 -.968 8.9 3.525 3.525 0 0 1 -1.72.366zm-134-36.266v-19.241a57.012 57.012 0 0 1 5.771-24.9c6.253-12.98 15.073-22.462 25.532-27.608 9.538 4.326 11.51 15.382 12.639 27.469a41.215 41.215 0 0 0 .978 6.835 6.3 6.3 0 0 0 5.193 4.808 6.034 6.034 0 0 0 .868.05h.026c-18.331 20.152-40.568 16.461-41.593 16.276a6 6 0 0 0 -2.23 11.791 42.7 42.7 0 0 0 7.482.571c10.346 0 29.538-2.853 45.825-21.223a6 6 0 0 0 -3.073-9.81c6.189-3.339 17.153-11.484 22.629-29.085.113-.083.227-.164.336-.256a40.864 40.864 0 0 1 11.991-7.152c25.26-9.51 36.549 2.363 41.568 14 2.243 5.195 4.056 9.166 5.883 12.874a56.918 56.918 0 0 1 5.561 19.2 74.072 74.072 0 0 0 4.126 17.609l.05.136a31.648 31.648 0 0 1 -.119 22.071 57.787 57.787 0 0 0 -2 6.412 17.374 17.374 0 0 0 -3.935-3.7 15.721 15.721 0 0 0 -9.508-2.639v-32.85a17.036 17.036 0 0 0 -17.008-17.064 4.547 4.547 0 0 1 -4.4-3.361 33.093 33.093 0 0 0 -14.081-18.774 5.992 5.992 0 0 0 -8.609 3.095c-17.932 47.961-63.058 57.317-90.554 60.049a21.171 21.171 0 0 0 .652-5.583zm9 26.606v9.66a9.53 9.53 0 0 1 -1.68-.375 5.108 5.108 0 0 1 -3.043-5.4 4.988 4.988 0 0 1 2.061-3.5 3.012 3.012 0 0 1 2.662-.385zm-13.736-8.6c1.175-.094 2.4-.2 3.656-.313a16.921 16.921 0 0 0 -4.221 4.741 36.688 36.688 0 0 1 .565-4.427zm-1.552 61.15a3.4 3.4 0 0 0 -.684-.478 8.963 8.963 0 0 1 -3.7-5.353c-.659-3.12.508-6.914 3.469-11.279a29.231 29.231 0 0 0 5.003-18.329 16.68 16.68 0 0 0 5.176 3.31 17.287 17.287 0 0 0 6.294 1.243 62.438 62.438 0 0 0 29.056 51.251c-4.685 10.327-11.531 22.015-18.593 27.846a14.77 14.77 0 0 0 -5.445 12.022 11.339 11.339 0 0 0 3.125 7.394c-.165.048-.306.079-.413.1-2.892.633-7-1.016-9.776-3.924-7.358-7.71-3.85-25.527-1.734-32.271 1.67-3.488 6.31-16.906-11.778-31.531zm46.028 42.868a9.093 9.093 0 0 1 -5.941 8.109 83.463 83.463 0 0 0 5.941-8.108zm-56.74 113.293v-12h22.846a51.019 51.019 0 0 0 1.218 12zm177 0h-23.719a51.019 51.019 0 0 0 1.219-12h22.5zm0-24h-24.207a56.512 56.512 0 0 0 -2.238-6.257 5.963 5.963 0 0 0 -7.889-3.043 6.045 6.045 0 0 0 -3.125 7.929 36.729 36.729 0 0 1 1.337 25.371h-104.41a36.614 36.614 0 0 1 1.337-25.33 6 6 0 0 0 -3.125-7.889 5.93 5.93 0 0 0 -7.889 2.962 56.309 56.309 0 0 0 -2.238 6.257h-24.553v-41.638a27.087 27.087 0 0 1 12.259-22.485 25.061 25.061 0 0 0 3.2 4.056 24.459 24.459 0 0 0 17.2 7.771 18.237 18.237 0 0 0 3.89-.41c6.144-1.347 10.812-5.8 13.124-12.543a6.039 6.039 0 0 0 .271-3.476 20.852 20.852 0 0 0 7.056-1.956v2.325a32 32 0 0 0 64 0v-2.325c2 1.309 5.438 1.681 8.676 1.681h.811c2.384 7 6.928 10.777 12.87 12.079a18.109 18.109 0 0 0 3.869.506 24.309 24.309 0 0 0 17.16-7.724c.075-.078.139-.138.213-.217a26.962 26.962 0 0 1 12.401 22.718z" fill="url(#linear-gradient-3)"/><path d="m438.753 191.55c.109.028 10.94 2.935 13.363 13.466a6 6 0 0 0 11.7-2.69c-4.041-17.56-21.33-22.207-22.063-22.4a6 6 0 0 0 -3 11.62z" fill="url(#linear-gradient-4)"/><path d="m342.646 355.173a6 6 0 1 0 11.318 3.984c9.946-28.253-15.066-37.781-15.319-37.874a6 6 0 1 0 -4.175 11.25c2.373.918 13.921 6.32 8.176 22.64z" fill="url(#linear-gradient-5)"/><path d="m131.291 257.922a15.754 15.754 0 0 0 -15.736 15.736 6 6 0 0 0 12 0 3.736 3.736 0 1 1 7.471 0 6 6 0 0 0 12 0 15.753 15.753 0 0 0 -15.735-15.736z" fill="url(#linear-gradient-6)"/><path d="m89.1 279.658a6 6 0 0 0 6-6 15.737 15.737 0 0 0 -31.473 0 6 6 0 0 0 12 0 3.737 3.737 0 0 1 7.473 0 6 6 0 0 0 6 6z" fill="url(#linear-gradient-7)"/><path d="m117.316 305.889a16.974 16.974 0 0 1 -23.978 0 6 6 0 1 0 -8.484 8.486 28.989 28.989 0 0 0 40.947 0 6 6 0 1 0 -8.485-8.486z" fill="url(#linear-gradient-8)"/><path d="m282.275 133a6 6 0 0 0 6 6h116.725a6 6 0 0 0 0-12h-116.725a6 6 0 0 0 -6 6z" fill="url(#linear-gradient-9)"/><path d="m165.719 139h98.34a6 6 0 0 0 0-12h-98.34a6 6 0 0 0 0 12z" fill="url(#linear-gradient-10)"/><path d="m107 127a6 6 0 0 0 0 12h35.257a6 6 0 0 0 0-12z" fill="url(#linear-gradient-11)"/><path d="m372.24 93a6 6 0 0 0 6 6h26.76a6 6 0 0 0 0-12h-26.76a6 6 0 0 0 -6 6z" fill="url(#linear-gradient-12)"/><path d="m355 99a6 6 0 0 0 0-12h-59.035a6 6 0 0 0 0 12z" fill="url(#linear-gradient-13)"/><path d="m278.421 93a6 6 0 0 0 -6-6h-165.421a6 6 0 0 0 0 12h165.421a6 6 0 0 0 6-6z" fill="url(#linear-gradient-14)"/><path d="m383.363 57h21.637a6 6 0 0 0 0-12h-21.637a6 6 0 0 0 0 12z" fill="url(#linear-gradient-15)"/><path d="m359.614 45h-204.532a6 6 0 0 0 0 12h204.532a6 6 0 0 0 0-12z" fill="url(#linear-gradient-16)"/><path d="m107 57h24.538a6 6 0 0 0 0-12h-24.538a6 6 0 0 0 0 12z" fill="url(#linear-gradient-17)"/><g fill="url(#linear-gradient-18)"><path d="m91 49a6 6 0 0 0 -12 0v2a6 6 0 0 0 12 0z"/><path d="m85 65a6 6 0 0 0 -6 6v62a6 6 0 0 0 12 0v-62a6 6 0 0 0 -6-6z"/></g></svg>