<svg height="512" viewBox="0 0 60 60" width="512" xmlns="http://www.w3.org/2000/svg"><g id="Page-1" fill="none" fill-rule="evenodd"><g id="029---Education" fill="rgb(0,0,0)" fill-rule="nonzero"><path id="Shape" d="m39.264 25.342c.5092075.2129071 1.0946245-.0269885 1.308-.536l.342-.816c.029 0 .057.009.086.009 1.6568542 0 3-1.3431458 3-3s-1.3431458-3-3-3c-.084 0-.163.017-.245.024l-2.655-3.885c1.1530129-1.0965208 1.2456989-2.903821.2109084-4.1125416-1.0347905-1.20872049-2.8347811-1.39569274-4.0959084-.4254584l-3.315-1.873c.0632892-.23726149.0968794-.48146222.1-.727.0068306-1.52733227-1.134927-2.81598769-2.6519634-2.99316338-1.5170363-.1771757-2.9250211.81369361-3.27033 2.30149476-.3453089 1.48780116.4823017 2.9975375 1.9222934 3.50666862v8.369c-1.1973902.4178377-1.9995115 1.5472998-1.9995115 2.8155s.8021213 2.3976623 1.9995115 2.8155v12.368c-1.4344622.5109756-2.2571719 2.0169726-1.9120692 3.5001051.3451027 1.4831326 1.7481507 2.4712291 3.26084 2.2964466 1.5126894-.1747824 2.6534389-1.4567999 2.6512292-2.9795517-.0040502-.2832721-.0488426-.5644874-.133-.835l5.157-5.416c.3808003-.4001303.3651303-1.0331997-.035-1.414s-1.0331997-.3651303-1.414.035l-4.9 5.143c-.2101121-.1381502-.436929-.2490385-.675-.33v-12.369c.039-.014.081-.021.12-.037l3.511 3.856c.2370789.2770197.6061427.4030453.9631397.3288869.3569969-.0741584.6453349-.336745.7524709-.6852679s.0160864-.7277332-.2376106-.989619l-3.5-3.842c.0783015-.1431709.145176-.2923011.2-.446h7.368c.1748917.4888755.4740338.9238033.868 1.262l-.323.773c-.1018979.2452946-.1020198.5210509-.000339.7664356s.2968092.4402344.542339.5415644zm2.736-4.342c0 .5522847-.4477153 1-1 1s-1-.4477153-1-1 .4477153-1 1-1 1 .4477153 1 1zm-3.1-2.14c-.3219452.3208531-.5667753.7106663-.716 1.14h-7.368c-.0558888-.1563328-.125145-.3075588-.207-.452l4.276-4.768c.3541048.1442067.7326591.218899 1.115.22.084 0 .163-.018.245-.025zm-9.114-9.46 3.314 1.869c-.2012787.7364825-.0963305 1.5230527.291 2.181l-4.276 4.769c-.037-.015-.077-.023-.115-.036v-8.369c.2813774-.09757565.5463753-.23715472.786-.414zm6.214 1.6c.5522847 0 1 .4477153 1 1s-.4477153 1-1 1-1-.4477153-1-1 .4477153-1 1-1zm-8-5c.5522847 0 1 .44771525 1 1s-.4477153 1-1 1-1-.44771525-1-1 .4477153-1 1-1zm0 14c.5522847 0 1 .4477153 1 1s-.4477153 1-1 1-1-.4477153-1-1 .4477153-1 1-1zm0 20c-.5522847 0-1-.4477153-1-1s.4477153-1 1-1 1 .4477153 1 1-.4477153 1-1 1z"/><path id="Shape" d="m11.859 39.922c1.3049106 2.3763151 4.0537935 3.5668528 6.6797347 2.8929846 2.6259411-.6738682 4.4618667-3.0409581 4.4612653-5.7519846v-29.242c.0202354-1.41347975-.7196516-2.72908889-1.938-3.446-1.934-.98-4.782-.067-8.7 2.785-2.071447.8196564-3.19241801 3.0684968-2.6 5.216-2.66907417.8036931-4.32949201 3.4607039-3.882 6.212-1.91484091 2.0541616-2.12367062 5.1707363-.5 7.462-.70642398.8546099-1.09198261 1.9292219-1.09 3.038.0073741 2.02132 1.27567108 3.8231323 3.176 4.512-.3368822 1.4292727-.05069759 2.9343696.78724353 4.1402571.83794113 1.2058875 2.14873247 1.9990109 3.60575647 2.1817429zm-5.569-10.834c.00295778-.5745515.18508513-1.1338677.521-1.6.99912098.7066342 2.19324751 1.0851062 3.417 1.083.5522847 0 1-.4477153 1-1s-.4477153-1-1-1c-1.64088356.0013559-3.11045157-1.0153976-3.68767772-2.5514023-.57722614-1.5360048-.14098862-3.2689545 1.09467772-4.3485977.28809886-.2525787.40655542-.6475634.305-1.017-.08550381-.3121801-.12921842-.6343231-.13-.958-.00028822-1.6949922 1.19547549-3.1547212 2.8573556-3.4881178 1.6618801-.3333966 3.3281431.5521693 3.9816444 2.1161178.2180254.502277.7994525.7358079 1.304336.5238883.5048834-.2119196.7454467-.7904726.539664-1.2978883-.802306-1.9124171-2.6063754-3.2158707-4.674-3.377-.1327268-.2935666-.2048333-.6109031-.212-.933.0030215-1.0265769.6523822-1.93992821 1.621-2.28.2560246-.09448736.5271086-.14158821.8-.139.9456615.00135049 1.8043507.55208253 2.2 1.411.1368565.342853.4514697.582421.8183728.6231648.366903.0407439.7264103-.1239643.9351513-.4284394.208741-.304475.2327591-.69918683.0624759-1.0267254-.438434-.9532785-1.2015587-1.71959326-2.153-2.162 2.645-1.508 3.827-1.3 4.258-1.083.824.409.851 1.66.851 1.666v4.579c-.4041469-.1718372-.8388387-.2602721-1.278-.26-.5522847 0-1 .4477153-1 1s.4477153 1 1 1c.7052015.0005505 1.2768975.5717992 1.278 1.277v21.646c-.0002859 1.8765052-1.3249146 3.4919997-3.1649888 3.8599659-1.8400741.3679662-3.6841025-.6138805-4.4060112-2.3459659-.1553781-.3724703-.5194204-.6150337-.923-.615-1.7540855-.0016529-3.17579507-1.4229151-3.178-3.177-.00213528-.5030724.11943178-.9989561.354-1.444.1587463-.2983495.1560613-.6566943-.00713788-.9526315s-.46483014-.4894237-.80186212-.5143685c-1.45570042-.1131542-2.58009076-1.3259113-2.583-2.786z"/><path id="Shape" d="m11.94 24.1c-.4375392.1863881-.6832758.6551446-.587674 1.1210216s.50609.7999708.981674.7989784c.1354135-.0005263.2693612-.0280638.394-.081 1.1696941-.5040539 2.0651682-1.4880914 2.457-2.7 1.4342487-.0898843 2.7859736-.7017176 3.8-1.72.391846-.3912938.3922937-1.0261539.001-1.418-.3912938-.391846-1.026154-.3922937-1.418-.001-.7617395.7619594-1.8024678 1.1784462-2.87957 1.152369s-2.0964562-.4924397-2.82043-1.290369c-.3731254-.4008144-.9992256-.4269733-1.4044848-.0586803s-.4389228.9940345-.0755152 1.4036803c.7341698.8022238 1.6742507 1.3877856 2.718 1.693-.2511111.4894634-.6627509.8778029-1.166 1.1z"/><path id="Shape" d="m18.419 26.678c-.228145-.0001594-.4561359.0118577-.683.036-1.8476361.1481222-3.4383899 1.3620053-4.069 3.105-.6318613 1.8107877-.164771 3.8235576 1.2 5.171.5966258.5919153.9352066 1.3955954.942 2.236 0 .5522847.4477153 1 1 1s1-.4477153 1-1c-.0043189-1.3637678-.5465879-2.6707474-1.509-3.637-.8276774-.8018094-1.119289-2.0087464-.749-3.1.3733853-1.0204491 1.3154478-1.7230708 2.4-1.79.1550845-.0169633.3109908-.0253095.467-.025.5522847 0 1-.4477153 1-1s-.4477153-1-1-1z"/><path id="Shape" d="m37 45h-33c-1.1045695 0-2-.8954305-2-2v-39c0-1.1045695.8954305-2 2-2h40c1.1045695 0 2 .8954305 2 2v17c0 .5522847.4477153 1 1 1s1-.4477153 1-1v-17c0-2.209139-1.790861-4-4-4h-40c-2.209139 0-4 1.790861-4 4v39c0 2.209139 1.790861 4 4 4h19v3c.0033061 2.7600532 2.2399468 4.9966939 5 5h7c.5522847 0 1-.4477153 1-1s-.4477153-1-1-1h-7c-1.6568542 0-3-1.3431458-3-3v-3h12c.5522847 0 1-.4477153 1-1s-.4477153-1-1-1z"/><path id="Shape" d="m54 46h-.111c1.3500248-1.3131925 2.1114407-3.116641 2.111-5-.0004088-1.2593964-.346293-2.494549-1-3.571v-5.815l4.174-1.687c.3777174-.1528233.6249387-.5195379.6249387-.927s-.2472213-.7741767-.6249387-.927l-9.9-4c-.2405327-.0973003-.5094673-.0973003-.75 0l-9.9 4c-.3535984.1404727-.5954071.4711606-.6220605.850705s.1665651.740782.4970605.929295v3.147c0 .5522847.4477153 1 1 1s1-.4477153 1-1v-2.315l2.501 1.015v5.736c-.6521923 1.0745414-.9980066 2.3070235-1 3.564-.0004407 1.883359.7609752 3.6868075 2.111 5h-.111c-3.3123376.0033074-5.9966926 2.6876624-6 6v6c0 1.1045695.8954305 2 2 2h18c1.1045695 0 2-.8954305 2-2v-6c-.0033074-3.3123376-2.6876624-5.9966926-6-6zm-.876-8.878.023-.035-.018.03zm-4.224-11.043 7.23 2.921-7.23 2.921-7.231-2.921zm-.375 7.848c.2405327.0973003.5094673.0973003.75 0l3.725-1.505v4.778c-1.2801395.4641166-2.640028.6680999-4 .6-1.3579306.0612739-2.7151806-.135188-4-.579v-4.721zm-4.525 7.073c.0031404-.6496756.1346607-1.2923239.387-1.891 1.4861761.4960225 3.0465768.7328056 4.613.7 1.5677925.0337446 3.129667-.2030568 4.617-.7.2503646.5991407.3804989 1.2416574.383 1.891 0 2.7614237-2.2385763 5-5 5s-5-2.2385763-5-5zm14 17h-3v-3c0-.5522847-.4477153-1-1-1s-1 .4477153-1 1v3h-8v-3c0-.5522847-.4477153-1-1-1s-1 .4477153-1 1v3h-3v-6c0-2.209139 1.790861-4 4-4h10c2.209139 0 4 1.790861 4 4z"/></g></g></svg>